<svg width="58" height="58" viewBox="0 0 58 58" fill="none" xmlns="http://www.w3.org/2000/svg">
<path fill-rule="evenodd" clip-rule="evenodd" d="M35.2386 5.90423C35.6216 6.09902 35.8302 6.52326 35.7503 6.94558C35.7223 7.09251 33.0243 21.722 34.6493 29.842C35.1767 32.1117 35.55 34.4144 35.7667 36.7344C35.7619 40.4695 32.7351 43.4962 29.0001 43.501C25.265 43.4962 22.2382 40.4695 22.2334 36.7344V36.6203C22.2346 35.6214 22.3544 34.6262 22.5901 33.6555C24.3079 25.231 33.5434 7.09638 33.9388 6.32788C34.1807 5.85191 34.7626 5.66233 35.2386 5.90423ZM24.1667 36.7344C24.1667 39.4037 26.3307 41.5677 29.0001 41.5677C31.6694 41.5677 33.8334 39.4037 33.8334 36.7344C33.6227 34.5415 33.2619 32.3655 32.7536 30.2219C31.7386 25.1518 32.2867 17.9259 32.917 12.7968C29.9725 18.9603 25.5703 28.7072 24.4838 34.0432C24.276 34.883 24.1695 35.7446 24.1667 36.6097V36.7344ZM11.5996 42.5343C11.5996 40.9327 12.898 39.6343 14.4996 39.6343C16.1013 39.6343 17.3996 40.9327 17.3996 42.5343C17.3996 44.136 16.1013 45.4343 14.4996 45.4343C12.898 45.4343 11.5996 44.136 11.5996 42.5343ZM13.5329 42.5343C13.5329 43.0682 13.9658 43.501 14.4996 43.501C15.0335 43.501 15.4663 43.0682 15.4663 42.5343C15.4663 42.0005 15.0335 41.5677 14.4996 41.5677C13.9658 41.5677 13.5329 42.0005 13.5329 42.5343ZM5.80026 41.5677C3.66477 41.5677 1.93359 43.2989 1.93359 45.4344C1.93359 47.5698 3.66477 49.301 5.80026 49.301C7.93575 49.301 9.66693 47.5698 9.66693 45.4344C9.66693 43.2989 7.93575 41.5677 5.80026 41.5677ZM5.80026 47.3677C4.73246 47.3677 3.86693 46.5022 3.86693 45.4344C3.86693 44.3666 4.73246 43.501 5.80026 43.501C6.86806 43.501 7.73359 44.3666 7.73359 45.4344C7.73359 46.5022 6.86806 47.3677 5.80026 47.3677ZM48.333 45.4344C48.333 43.2989 50.0642 41.5677 52.1997 41.5677C54.3352 41.5677 56.0663 43.2989 56.0663 45.4344C56.0663 47.5698 54.3352 49.301 52.1997 49.301C50.0642 49.301 48.333 47.5698 48.333 45.4344ZM50.2663 45.4344C50.2663 46.5022 51.1319 47.3677 52.1997 47.3677C53.2675 47.3677 54.133 46.5022 54.133 45.4344C54.133 44.3666 53.2675 43.501 52.1997 43.501C51.1319 43.501 50.2663 44.3666 50.2663 45.4344ZM43.4996 39.6343C41.898 39.6343 40.5996 40.9327 40.5996 42.5343C40.5996 44.136 41.898 45.4343 43.4996 45.4343C45.1013 45.4343 46.3996 44.136 46.3996 42.5343C46.3996 40.9327 45.1013 39.6343 43.4996 39.6343ZM43.4996 43.501C42.9658 43.501 42.5329 43.0682 42.5329 42.5343C42.5329 42.0005 42.9658 41.5677 43.4996 41.5677C44.0335 41.5677 44.4663 42.0005 44.4663 42.5343C44.4663 43.0682 44.0335 43.501 43.4996 43.501ZM17.4004 49.301C17.4004 47.6994 18.6987 46.401 20.3004 46.401C21.902 46.401 23.2004 47.6994 23.2004 49.301C23.2004 50.9026 21.902 52.201 20.3004 52.201C18.6987 52.201 17.4004 50.9026 17.4004 49.301ZM19.3337 49.301C19.3337 49.8348 19.7665 50.2677 20.3004 50.2677C20.8342 50.2677 21.2671 49.8348 21.2671 49.301C21.2671 48.7672 20.8342 48.3343 20.3004 48.3343C19.7665 48.3343 19.3337 48.7672 19.3337 49.301ZM37.6998 46.401C36.0982 46.401 34.7998 47.6994 34.7998 49.301C34.7998 50.9026 36.0982 52.201 37.6998 52.201C39.3014 52.201 40.5998 50.9026 40.5998 49.301C40.5998 47.6994 39.3014 46.401 37.6998 46.401ZM37.6998 50.2677C37.166 50.2677 36.7331 49.8348 36.7331 49.301C36.7331 48.7672 37.166 48.3343 37.6998 48.3343C38.2336 48.3343 38.6665 48.7672 38.6665 49.301C38.6665 49.8348 38.2336 50.2677 37.6998 50.2677ZM37.7 36.7344V35.7677H58V37.701H39.5898C39.0834 43.1733 34.4956 47.3612 29 47.3677C23.5044 47.3612 18.9166 43.1732 18.4102 37.701H0V35.7677H20.3V36.7344C20.3 41.5392 24.1952 45.4344 29 45.4344C33.8049 45.4344 37.7 41.5392 37.7 36.7344ZM3.20447 18.6451L3.2046 18.6452C4.09191 19.749 5.09761 21.0001 7.04286 21.0001C8.98822 21 9.99399 19.7489 10.8813 18.6451L10.8814 18.6451L10.8815 18.645C11.7206 17.6011 12.4454 16.6996 13.957 16.6996C15.4687 16.6996 16.1934 17.6012 17.0325 18.645L17.0326 18.6451C17.2782 18.9506 17.6481 18.9096 17.8588 18.5533C18.0695 18.1971 18.0412 17.6606 17.7955 17.3551L17.7954 17.3549C16.9081 16.2511 15.9023 15.0001 13.957 15.0001C12.0116 15.0001 11.0058 16.2512 10.1184 17.3551L10.1184 17.3551C9.27923 18.399 8.55448 19.3005 7.04286 19.3005C5.53124 19.3005 4.80658 18.399 3.96747 17.3551L3.96745 17.3551C3.72182 17.0495 3.35192 17.0905 3.14122 17.4468C2.93051 17.803 2.95884 18.3395 3.20447 18.6451ZM8.39048 13.4849C5.79665 13.4849 4.45571 12.3347 3.27263 11.3199C2.94513 11.039 2.90735 10.5457 3.18829 10.2182C3.46919 9.89069 3.96243 9.85295 4.28993 10.1339C5.40876 11.0936 6.37501 11.9224 8.39048 11.9224C10.406 11.9224 11.3723 11.0936 12.4912 10.134L12.4913 10.1339C13.6744 9.11905 15.0154 7.96881 17.6093 7.96881C20.2031 7.96881 21.5441 9.11897 22.7273 10.1338C23.0548 10.4147 23.0926 10.908 22.8117 11.2355C22.5308 11.563 22.0376 11.6008 21.7101 11.3199C20.5911 10.3601 19.6248 9.53131 17.6093 9.53131C15.5938 9.53131 14.6275 10.3601 13.5087 11.3197L13.5085 11.3199C12.3254 12.3347 10.9843 13.4849 8.39048 13.4849Z" fill="url(#paint0_linear)"/>
<defs>
<linearGradient id="paint0_linear" x1="-3.241e-07" y1="29" x2="58" y2="29" gradientUnits="userSpaceOnUse">
<stop stop-color="#E86AAD"/>
<stop offset="1" stop-color="#5CBAFE"/>
</linearGradient>
</defs>
</svg>
