<svg width="16" height="15" viewBox="0 0 16 15" fill="none" xmlns="http://www.w3.org/2000/svg">
<path d="M14.5938 2.05922H12.4688V1.04734C12.4688 0.793334 12.2589 0.587402 12 0.587402C11.7411 0.587402 11.5312 0.793334 11.5312 1.04734V2.05922H8.46875V1.04734C8.46875 0.793334 8.25887 0.587402 8 0.587402C7.74113 0.587402 7.53125 0.793334 7.53125 1.04734V2.05922H4.46875V1.04734C4.46875 0.793334 4.25887 0.587402 4 0.587402C3.74113 0.587402 3.53125 0.793334 3.53125 1.04734V2.05922H1.40625C0.630844 2.05922 0 2.67821 0 3.43905V13.6191C0 14.3799 0.630844 14.9989 1.40625 14.9989H14.5938C15.3692 14.9989 16 14.3799 16 13.6191V3.43905C16 2.67821 15.3692 2.05922 14.5938 2.05922ZM1.40625 2.9791H3.53125V3.99098C3.53125 4.24499 3.74113 4.45092 4 4.45092C4.25887 4.45092 4.46875 4.24499 4.46875 3.99098V2.9791H7.53125V3.99098C7.53125 4.24499 7.74113 4.45092 8 4.45092C8.25887 4.45092 8.46875 4.24499 8.46875 3.99098V2.9791H11.5312V3.99098C11.5312 4.24499 11.7411 4.45092 12 4.45092C12.2589 4.45092 12.4688 4.24499 12.4688 3.99098V2.9791H14.5938C14.8522 2.9791 15.0625 3.18543 15.0625 3.43905V5.49346H0.9375V3.43905C0.9375 3.18543 1.14778 2.9791 1.40625 2.9791ZM14.5938 14.0791H1.40625C1.14778 14.0791 0.9375 13.8727 0.9375 13.6191V6.41334H15.0625V13.6191C15.0625 13.8727 14.8522 14.0791 14.5938 14.0791Z" fill="#586E8E"/>
</svg>
